<svg width="16" height="16" viewBox="0 0 16 16" fill="none" xmlns="http://www.w3.org/2000/svg">
<path d="M11.808 3.46544L11.1254 3.77608L11.1398 3.8077L11.157 3.83787L11.808 3.46544ZM4.18501 3.46544L3.51434 3.12974L3.49671 3.16496L3.48286 3.20184L4.18501 3.46544ZM4.22701 3.38154L4.89768 3.71724L4.90114 3.71035L4.90444 3.70338L4.22701 3.38154ZM4.30107 3.22559L3.62355 2.90393L3.62355 2.90393L4.30107 3.22559ZM4.80101 2.18586L4.13332 1.84421L4.13034 1.85015L4.80101 2.18586ZM6.34802 1.19995V0.449911L6.3403 0.449991L6.34802 1.19995ZM9.64503 1.19995L9.65276 0.449951H9.64503V1.19995ZM11.199 2.18586L11.8697 1.85014L11.8667 1.84423L11.199 2.18586ZM11.6391 3.10282L12.317 2.78189L12.317 2.78188L11.6391 3.10282ZM11.738 3.31161L12.4208 3.00094L12.4157 2.99025L11.738 3.31161ZM9.93905 10.3738L10.4691 10.9044H10.4691L9.93905 10.3738ZM10.7511 8.42991L11.5011 8.4368V8.42991H10.7511ZM9.94605 6.48606L10.4796 5.95899L10.4761 5.95544L9.94605 6.48606ZM6.04704 6.49305L5.51699 5.96242L5.51345 5.966L6.04704 6.49305ZM5.24903 8.42991H5.99907L5.999 8.42269L5.24903 8.42991ZM6.05404 10.3738L5.5204 10.9009L5.52757 10.9079L6.05404 10.3738ZM11.948 2.79935C12.1942 2.79935 12.3747 2.94553 12.459 3.09302L11.157 3.83787C11.2974 4.08325 11.5759 4.29935 11.948 4.29935V2.79935ZM15.7501 6.59797C15.7501 4.50483 14.0415 2.79935 11.948 2.79935V4.29935C13.2146 4.29935 14.2501 5.33483 14.2501 6.59797H15.7501ZM15.7501 10.7514V6.59797H14.2501V10.7514H15.7501ZM11.948 14.55C14.0415 14.55 15.7501 12.8445 15.7501 10.7514H14.2501C14.2501 12.0145 13.2146 13.05 11.948 13.05V14.55ZM4.05201 14.55H11.948V13.05H4.05201V14.55ZM0.25 10.7514C0.25 12.8434 1.95046 14.55 4.05201 14.55V13.05C2.77955 13.05 1.75 12.0156 1.75 10.7514H0.25ZM0.25 6.59797V10.7514H1.75V6.59797H0.25ZM4.05201 2.79935C1.95046 2.79935 0.25 4.50595 0.25 6.59797H1.75C1.75 5.33371 2.77955 4.29935 4.05201 4.29935V2.79935ZM3.48286 3.20184C3.60062 2.88817 3.88669 2.79935 4.05201 2.79935V4.29935C4.32934 4.29935 4.7274 4.15459 4.88716 3.72904L3.48286 3.20184ZM3.55634 3.04583L3.51434 3.12974L4.85568 3.80115L4.89768 3.71724L3.55634 3.04583ZM3.62355 2.90393C3.59839 2.95691 3.57366 3.009 3.54958 3.05969L4.90444 3.70338C4.92863 3.65247 4.95345 3.6002 4.97859 3.54725L3.62355 2.90393ZM4.13034 1.85015C4.00319 2.10418 3.80093 2.5303 3.62355 2.90393L4.97859 3.54725C5.15936 3.16649 5.35332 2.75804 5.47169 2.52157L4.13034 1.85015ZM6.3403 0.449991C5.36648 0.460019 4.57486 0.98134 4.13334 1.84423L5.46869 2.52749C5.67117 2.13177 5.97155 1.95387 6.35574 1.94991L6.3403 0.449991ZM9.64503 0.449951H6.34802V1.94995H9.64503V0.449951ZM11.8667 1.84423C11.4236 0.978136 10.6231 0.459984 9.65276 0.449991L9.63731 1.94991C10.025 1.9539 10.3305 2.13498 10.5314 2.52749L11.8667 1.84423ZM12.317 2.78188C12.1568 2.44353 11.9846 2.0796 11.8697 1.85015L10.5284 2.52157C10.634 2.73261 10.7977 3.07822 10.9613 3.42375L12.317 2.78188ZM12.4157 2.99025C12.3835 2.92232 12.3504 2.8525 12.317 2.78189L10.9613 3.42374C10.9947 3.49428 11.0279 3.56453 11.0604 3.63297L12.4157 2.99025ZM12.4907 3.15481L12.4207 3.00098L11.0554 3.62225L11.1254 3.77608L12.4907 3.15481ZM9.40902 9.84313C9.0463 10.2054 8.54849 10.4279 8.00004 10.4279V11.9279C8.96361 11.9279 9.8378 11.535 10.4691 10.9044L9.40902 9.84313ZM10.0011 8.42302C9.99594 8.98298 9.77084 9.48171 9.40902 9.84313L10.4691 10.9044C11.1013 10.2729 11.4922 9.40115 11.501 8.4368L10.0011 8.42302ZM9.41247 7.01312C9.79418 7.39956 10.0011 7.90338 10.0011 8.42991H11.5011C11.5011 7.50205 11.1339 6.6214 10.4796 5.95901L9.41247 7.01312ZM8.00004 6.43195C8.53679 6.43195 9.03901 6.64009 9.41602 7.01669L10.4761 5.95544C9.81709 5.29717 8.9333 4.93195 8.00004 4.93195V6.43195ZM6.57707 7.02368C6.9621 6.63908 7.46473 6.43195 8.00004 6.43195V4.93195C7.06536 4.93195 6.18198 5.29819 5.517 5.96243L6.57707 7.02368ZM5.999 8.42269C5.994 7.90338 6.19725 7.40823 6.58062 7.02011L5.51345 5.966C4.86082 6.62672 4.49007 7.50204 4.49907 8.43713L5.999 8.42269ZM6.58762 9.8467C6.20519 9.45953 5.99903 8.96242 5.99903 8.42991H4.49903C4.49903 9.36577 4.86688 10.2391 5.52045 10.9008L6.58762 9.8467ZM8.00004 10.4279C7.46618 10.4279 6.96813 10.2216 6.5805 9.83959L5.52757 10.9079C6.18995 11.5607 7.06391 11.9279 8.00004 11.9279V10.4279Z" fill="#161D21"/>
</svg>
